<?xml version="1.0" encoding="UTF-8" standalone="no"?>
<!-- Created with Inkscape (http://www.inkscape.org/) -->

<svg
   xmlns:dc="http://purl.org/dc/elements/1.1/"
   xmlns:cc="http://creativecommons.org/ns#"
   xmlns:rdf="http://www.w3.org/1999/02/22-rdf-syntax-ns#"
   xmlns:svg="http://www.w3.org/2000/svg"
   xmlns="http://www.w3.org/2000/svg"
   xmlns:sodipodi="http://sodipodi.sourceforge.net/DTD/sodipodi-0.dtd"
   xmlns:inkscape="http://www.inkscape.org/namespaces/inkscape"
   width="150"
   height="150"
   id="svg2"
   version="1.1"
   inkscape:version="0.91pre2 r13516"
   viewBox="0 0 150 150"
   sodipodi:docname="hndl.svg">
  <defs
     id="defs4" />
  <sodipodi:namedview
     id="base"
     pagecolor="#ffffff"
     bordercolor="#666666"
     borderopacity="1.0"
     inkscape:pageopacity="0.0"
     inkscape:pageshadow="2"
     inkscape:zoom="3.5866667"
     inkscape:cx="75"
     inkscape:cy="75"
     inkscape:document-units="px"
     inkscape:current-layer="layer1"
     showgrid="false"
     inkscape:window-width="1366"
     inkscape:window-height="705"
     inkscape:window-x="-8"
     inkscape:window-y="-8"
     inkscape:window-maximized="1" />
  <metadata
     id="metadata7">
    <rdf:RDF>
      <cc:Work
         rdf:about="">
        <dc:format>image/svg+xml</dc:format>
        <dc:type
           rdf:resource="http://purl.org/dc/dcmitype/StillImage" />
        <dc:title></dc:title>
      </cc:Work>
    </rdf:RDF>
  </metadata>
  <g
     inkscape:label="Layer 1"
     inkscape:groupmode="layer"
     id="layer1"
     transform="translate(0,-902.3622)">
    <path
       style="fill:#000000;fill-opacity:1;stroke:none;stroke-width:2.9000001;stroke-miterlimit:4;stroke-dasharray:none;stroke-opacity:0.05202314"
       d="m 21.056421,906.83971 c -8.235144,0 -14.8627825,6.56853 -14.8627825,14.72715 l 0,29.4543 c 0,8.15862 6.6276385,14.72466 14.8627825,14.72466 l 29.730561,0 c 8.235143,0 14.865279,-6.56604 14.865279,-14.72466 l 0,-9.19179 -7.069066,-1.79726 0,9.06305 c 0,6.50975 -5.288428,11.74905 -11.85924,11.74905 l -19.480539,0 c -6.570813,0 -11.861739,-5.2393 -11.861739,-11.74905 l 0,-23.50302 c 0,-6.50975 5.290926,-11.74905 11.861739,-11.74905 l 19.480539,0 c 6.570812,0 11.85924,5.2393 11.85924,11.74905 l 0,6.94148 7.069066,-0.94567 0,-10.02109 c 0,-8.15862 -6.630136,-14.72715 -14.865279,-14.72715 l -29.730561,0 z"
       id="rect4501"
       inkscape:connector-curvature="0" />
    <rect
       style="fill:#000000;fill-opacity:1;stroke:none;stroke-width:2.9000001;stroke-miterlimit:4;stroke-dasharray:none;stroke-opacity:0.05202314"
       id="rect4481"
       width="46.475307"
       height="46.475231"
       x="16.41441"
       y="-956.35388"
       ry="11.618828" />
    <path
       style="fill:#000000;fill-opacity:1;stroke:none;stroke-width:2.9000001;stroke-miterlimit:4;stroke-dasharray:none;stroke-opacity:0.05202314"
       d="m 115.55291,990.20416 a 31.415121,30.249813 0 0 0 -30.195961,22.00274 l 9.644224,2.0622 a 22.335607,21.787069 0 0 1 20.551737,-13.2597 22.335607,21.787069 0 0 1 22.33629,21.7863 22.335607,21.787069 0 0 1 -22.33629,21.7864 22.335607,21.787069 0 0 1 -22.292629,-20.582 l -8.619714,1.7975 a 31.415121,30.249813 0 0 0 30.912343,24.9077 31.415121,30.249813 0 0 0 31.41562,-30.2518 31.415121,30.249813 0 0 0 -31.41562,-30.24934 z"
       id="ellipse4509"
       inkscape:connector-curvature="0" />
    <path
       style="fill:#000000;fill-opacity:1;fill-rule:evenodd;stroke:none;stroke-width:1px;stroke-linecap:butt;stroke-linejoin:miter;stroke-opacity:1"
       d="m 5.5251125,1043.005 26.8581835,-47.82068 1.598701,-2.74125 4.476365,-0.30463 4.796104,0.91389 13.109351,13.09737 -8.313246,5.178 -4.476365,-7.3101 -5.435585,-3.6551 -4.476364,1.8275 -18.225195,35.0277 1.918441,5.7873 4.156623,1.8275 35.810912,-0.3046 4.156624,-4.2643 -0.63948,-3.3505 -11.19091,-22.235 7.673766,-4.2641 17.265976,31.3726 -1.598703,4.8735 -3.517142,3.3504 -7.034286,1.523 -50.199225,-1.2184 -5.115844,-3.046 z"
       id="path4515"
       inkscape:connector-curvature="0" />
    <path
       style="fill:#000000;fill-opacity:1;fill-rule:evenodd;stroke:none;stroke-width:1px;stroke-linecap:butt;stroke-linejoin:miter;stroke-opacity:1"
       d="m 83.803591,969.3091 52.605449,6.01734 c 7.42735,-8.27726 9.84367,-20.48788 8.5647,-30.48972 -2.54359,-2.84863 -6.57579,-0.4563 -10.24468,-0.94664 -1.64187,-0.21943 -2.92855,-0.77444 -3.50668,-1.98065 -0.81985,-1.71053 -0.21477,-4.73063 2.82303,-9.96035 1.88956,-3.22716 5.12033,-6.7919 6.84622,-9.83319 7.69878,-9.58784 -8.97976,-16.54119 -16.05067,-9.42545 -2.98482,1.9434 -3.47826,6.95953 -5.72414,8.64033 l -2.77412,1.04737 c -3.87601,-12.91768 -18.241579,-9.75728 -19.362443,1.51157 -10.258985,-4.51732 -13.881077,2.01506 -13.308433,11.4637 -5.473268,-0.39931 -7.104946,3.99165 -7.924409,8.80366 -1.130496,6.86995 0.93303,13.96873 3.18081,20.71207 l 4.084766,-1.05413 c -4.398613,-11.97821 -5.480288,-26.06945 5.797733,-23.05916 -1.490005,-15.57591 8.926034,-13.07648 12.254296,-8.16954 -1.385569,-9.92784 8.28059,-16.93918 13.39837,-4.30671 0,0 5.7078,0.74901 6.23486,0.48548 1.29145,-1.29012 5.96643,-9.74619 6.80063,-10.59831 4.13064,-4.21939 9.56176,1.11544 7.57321,4.25121 -0.98647,1.55558 -4.12248,6.89232 -6.51798,10.87459 -2.91303,3.76384 -3.31207,8.96464 -0.71527,13.01705 2.46137,3.70669 7.64652,-0.94114 11.75108,2.83608 3.46566,3.93345 -1.80787,10.63047 -6.24207,14.40578 l -36.367594,-0.26354 -12.649598,0.52707 z"
       id="path4521"
       inkscape:connector-curvature="0"
       sodipodi:nodetypes="cccssccccccccccccccssccccccc" />
    <ellipse
       style="fill:#000000;fill-opacity:1;stroke:none;stroke-width:2.9000001;stroke-miterlimit:4;stroke-dasharray:none;stroke-opacity:0.05202314"
       id="path4523"
       cx="30.80855"
       cy="981.82318"
       rx="19.098513"
       ry="17.565056" />
    <ellipse
       style="fill:#000000;fill-opacity:1;stroke:none;stroke-width:2.9000001;stroke-miterlimit:4;stroke-dasharray:none;stroke-opacity:0.05202314"
       id="path4525"
       cx="76.672859"
       cy="986.28412"
       rx="21.18959"
       ry="20.631969" />
    <ellipse
       style="fill:#000000;fill-opacity:1;stroke:none;stroke-width:2.9000001;stroke-miterlimit:4;stroke-dasharray:none;stroke-opacity:0.05202314"
       id="path4527"
       cx="126.57993"
       cy="984.19305"
       rx="12.825279"
       ry="13.522305" />
  </g>
</svg>
