<?xml version="1.0" encoding="UTF-8" standalone="no"?>
<!-- Created with Inkscape (http://www.inkscape.org/) -->

<svg
   xmlns:dc="http://purl.org/dc/elements/1.1/"
   xmlns:cc="http://creativecommons.org/ns#"
   xmlns:rdf="http://www.w3.org/1999/02/22-rdf-syntax-ns#"
   xmlns:svg="http://www.w3.org/2000/svg"
   xmlns="http://www.w3.org/2000/svg"
   xmlns:sodipodi="http://sodipodi.sourceforge.net/DTD/sodipodi-0.dtd"
   xmlns:inkscape="http://www.inkscape.org/namespaces/inkscape"
   width="150"
   height="150"
   id="svg2"
   version="1.1"
   inkscape:version="0.91pre2 r13516"
   viewBox="0 0 150 150"
   sodipodi:docname="pan0.svg">
  <defs
     id="defs4" />
  <sodipodi:namedview
     id="base"
     pagecolor="#ffffff"
     bordercolor="#666666"
     borderopacity="1.0"
     inkscape:pageopacity="0.0"
     inkscape:pageshadow="2"
     inkscape:zoom="3.5688695"
     inkscape:cx="76.643027"
     inkscape:cy="74.412761"
     inkscape:document-units="px"
     inkscape:current-layer="layer1"
     showgrid="false"
     inkscape:window-width="1366"
     inkscape:window-height="705"
     inkscape:window-x="-8"
     inkscape:window-y="-8"
     inkscape:window-maximized="1" />
  <metadata
     id="metadata7">
    <rdf:RDF>
      <cc:Work
         rdf:about="">
        <dc:format>image/svg+xml</dc:format>
        <dc:type
           rdf:resource="http://purl.org/dc/dcmitype/StillImage" />
        <dc:title></dc:title>
      </cc:Work>
    </rdf:RDF>
  </metadata>
  <g
     inkscape:label="Layer 1"
     inkscape:groupmode="layer"
     id="layer1"
     transform="translate(0,-902.3622)">
    <g
       id="g4315"
       style="stroke:#000000;stroke-opacity:0.11560693"
       transform="matrix(0.99207566,-0.05061273,0.12564189,1.0015778,-123.92333,-1.1187144)" />
    <path
       style="fill:#000000;fill-opacity:1;fill-rule:evenodd;stroke:none;stroke-width:1px;stroke-linecap:butt;stroke-linejoin:miter;stroke-opacity:1"
       d="M 15.844499,1048.633 C 5.9160058,1024.181 0.31860493,1004.5468 1.2654146,991.86537 c 2.1674149,-7.79215 4.0556302,-11.6558 14.4737104,-11.93403 -2.854855,-6.89675 -5.596409,-15.16737 -3.571567,-21.68523 2.879626,-9.26936 13.014675,-12.16773 24.703771,-6.79269 2.621466,-8.24562 2.745209,-21.10499 5.163007,-31.82809 2.670851,-11.84542 7.078094,-18.78926 19.946181,-16.67191 l -0.389154,5.91215 c -6.673066,-0.95217 -10.07796,3.72435 -12.533108,12.37209 -3.465732,12.2073 -3.537382,29.9896 -4.875601,38.46093 l -3.354806,0.68354 c -8.663766,-9.76752 -20.140508,-7.28751 -22.742645,1.23264 -2.046839,6.70193 0.278037,11.59635 4.882067,23.77656 l -2.711446,2.70929 c -8.386315,-2.70501 -12.0663265,-0.87296 -12.7605608,6.63656 -1.1039781,13.77472 7.5906188,31.01052 13.8437798,51.67262 z"
       id="path4399"
       inkscape:connector-curvature="0"
       sodipodi:nodetypes="cccscsccsccsccccc" />
    <path
       style="fill:#000000;fill-opacity:1;fill-rule:evenodd;stroke:none;stroke-width:1px;stroke-linecap:butt;stroke-linejoin:miter;stroke-opacity:1"
       d="m 125.03588,1044.6168 c -0.70064,-19.4931 13.23523,-36.2179 27.08835,-41.7946 -2.16096,-12.90984 -16.49504,-16.41205 -25.70286,-14.17317 -13.98212,0.0586 -21.47336,25.32937 -29.800496,22.70617 -2.892009,-1.1504 -3.008041,-5.3848 -2.808498,-9.2729 0.189551,-3.47815 0.82585,-6.86609 1.913832,-10.22072 l -4.40081,-1.60818 c -3.889392,8.0767 -5.192189,23.2702 2.08099,26.3266 16.449172,2.3977 21.238342,-18.90228 33.791542,-23.04867 5.89073,-1.82924 13.2979,-1.74991 19.4217,5.29737 -20.12874,12.6537 -29.00697,25.6086 -28.4678,46.1392 z"
       id="path4401"
       inkscape:connector-curvature="0"
       sodipodi:nodetypes="cccccccccccc" />
    <path
       style="fill:#000000;fill-opacity:1;fill-rule:evenodd;stroke:none;stroke-width:1px;stroke-linecap:butt;stroke-linejoin:miter;stroke-opacity:1"
       d="m 62.165291,908.89052 c 7.169121,1.32363 7.102556,9.18894 6.341747,17.56793 -0.216147,2.38047 -0.541374,4.77967 -0.916108,7.04861 -0.612584,3.70905 -1.357464,7.07001 -1.974394,9.43201 -1.741038,6.92651 -3.239545,13.87892 -3.47544,21.09067 0.59706,11.77341 6.740682,14.72293 11.402503,13.01677 12.444325,-8.85794 16.950643,-31.28229 24.22834,-44.61111 3.458961,-6.23322 7.685231,-10.84572 13.127161,-8.17597 10.96348,5.37856 0.23679,27.46383 -4.26481,35.03089 l 6.55508,3.16282 c 4.78194,-17.17522 20.41156,-34.87384 0.31196,-43.53709 -11.81341,-5.09177 -18.686701,2.07638 -22.578104,10.18007 -5.259508,12.68839 -10.966404,26.84259 -15.117064,37.28126 -4.408329,6.81006 -8.025548,4.82521 -7.818008,-1.80973 0.939141,-25.66676 18.67916,-59.41776 -5.389326,-61.26115 z"
       id="path4403"
       inkscape:connector-curvature="0"
       sodipodi:nodetypes="cssccccsccsccccc" />
    <path
       style="fill:#000000;fill-opacity:1;fill-rule:evenodd;stroke:none;stroke-width:1px;stroke-linecap:butt;stroke-linejoin:miter;stroke-opacity:1"
       d="m 105.02235,961.73473 -12.31706,23.80269 5.788228,2.57391 11.123762,-22.85899 z"
       id="path4405"
       inkscape:connector-curvature="0" />
    <path
       style="fill:#000000;fill-opacity:1;fill-rule:evenodd;stroke:none;stroke-width:1px;stroke-linecap:butt;stroke-linejoin:miter;stroke-opacity:1"
       d="m 14.992022,1011.1735 c 10.380423,10.7904 20.118041,18.7563 26.278451,14.2963 2.387014,-1.7281 4.328591,-4.1609 2.509399,-9.5308 l 5.831632,-2.737 c 4.971547,8.4115 0.106306,14.5578 -3.224548,17.0908 -8.155005,6.2013 -23.59044,-1.6469 -33.525579,-16.8422 z"
       id="path4407"
       inkscape:connector-curvature="0"
       sodipodi:nodetypes="csccscc" />
    <path
       style="fill:#000000;fill-opacity:1;fill-rule:evenodd;stroke:none;stroke-width:1px;stroke-linecap:butt;stroke-linejoin:miter;stroke-opacity:1"
       d="m 22.886592,1047.3043 c 18.855866,8.4186 30.229781,-3.2481 45.506818,-3.562 18.107555,-0.372 39.06619,10.6553 54.53171,1.9935 l 2.31461,5.7617 c -24.49051,5.2452 -37.309028,-2.4539 -55.918822,-2.6891 -17.384429,-0.2197 -33.995092,7.1949 -52.004456,1.1946 z"
       id="path4409"
       inkscape:connector-curvature="0"
       sodipodi:nodetypes="caccacc" />
    <path
       style="fill:#000000;fill-opacity:1;fill-rule:evenodd;stroke:none;stroke-width:1px;stroke-linecap:butt;stroke-linejoin:miter;stroke-opacity:1"
       d="m 31.493905,983.481 c 6.820237,8.1322 22.225319,19.6768 28.593164,9.48412 4.269996,-6.83481 -6.518766,-18.53863 -11.030402,-23.27357 l -8.127412,-8.6012 3.97562,-0.57511 6.779833,6.29895 c 12.733028,10.7631 20.321117,24.98212 12.483656,32.58067 -10.259106,9.94654 -24.670526,0.10191 -35.131529,-11.67356 z"
       id="path4411"
       inkscape:connector-curvature="0"
       sodipodi:nodetypes="csccccscc" />
  </g>
</svg>
