<?xml version="1.0" encoding="UTF-8" standalone="no"?>
<!-- Created with Inkscape (http://www.inkscape.org/) -->

<svg
   xmlns:dc="http://purl.org/dc/elements/1.1/"
   xmlns:cc="http://creativecommons.org/ns#"
   xmlns:rdf="http://www.w3.org/1999/02/22-rdf-syntax-ns#"
   xmlns:svg="http://www.w3.org/2000/svg"
   xmlns="http://www.w3.org/2000/svg"
   xmlns:sodipodi="http://sodipodi.sourceforge.net/DTD/sodipodi-0.dtd"
   xmlns:inkscape="http://www.inkscape.org/namespaces/inkscape"
   width="150"
   height="150"
   id="svg2"
   version="1.1"
   inkscape:version="0.91pre2 r13516"
   viewBox="0 0 150 150"
   sodipodi:docname="topleft1.svg">
  <defs
     id="defs4" />
  <sodipodi:namedview
     id="base"
     pagecolor="#ffffff"
     bordercolor="#666666"
     borderopacity="1.0"
     inkscape:pageopacity="0.0"
     inkscape:pageshadow="2"
     inkscape:zoom="3.5866667"
     inkscape:cx="75"
     inkscape:cy="75"
     inkscape:document-units="px"
     inkscape:current-layer="layer1"
     showgrid="false"
     inkscape:window-width="1366"
     inkscape:window-height="705"
     inkscape:window-x="-8"
     inkscape:window-y="-8"
     inkscape:window-maximized="1" />
  <metadata
     id="metadata7">
    <rdf:RDF>
      <cc:Work
         rdf:about="">
        <dc:format>image/svg+xml</dc:format>
        <dc:type
           rdf:resource="http://purl.org/dc/dcmitype/StillImage" />
        <dc:title></dc:title>
      </cc:Work>
    </rdf:RDF>
  </metadata>
  <g
     inkscape:label="Layer 1"
     inkscape:groupmode="layer"
     id="layer1"
     transform="translate(0,-902.3622)">
    <path
       style="fill:#000000;fill-opacity:1;fill-rule:evenodd;stroke:none;stroke-width:1px;stroke-linecap:butt;stroke-linejoin:miter;stroke-opacity:1"
       d="m 3.8486812,907.50067 c 1.72234,-0.77505 2.0668,-2.49739 0.94728,-3.10021 -1.11952,-0.60282 -3.32989,-1.94921 -3.43034,0.53244 -0.10045,2.48166 0.41625,2.82612 2.48306,2.56777 z"
       id="path4186"
       inkscape:connector-curvature="0"
       sodipodi:nodetypes="cssc" />
    <path
       style="fill:#000000;fill-opacity:1;fill-rule:evenodd;stroke:none;stroke-width:1px;stroke-linecap:butt;stroke-linejoin:miter;stroke-opacity:1"
       d="m 5.4152012,910.85808 c 5.0807298,7.25819 10.8872898,20.68585 13.7905698,29.7586 2.90328,9.07274 8.34692,27.21823 10.88729,38.46843 2.54037,11.2502 7.2582,7.62111 4.35492,-1.45164 -2.90328,-9.07274 -9.79857,-33.02478 -13.79057,-42.46044 -3.99201,-9.43565 -6.89529,-16.33094 -11.2502103,-23.22622 -4.3549095,-6.89529 -8.3469195,-7.98402 -3.9919995,-1.08873 z"
       id="path4202"
       inkscape:connector-curvature="0" />
    <path
       style="fill:#000000;fill-opacity:1;fill-rule:evenodd;stroke:none;stroke-width:1px;stroke-linecap:butt;stroke-linejoin:miter;stroke-opacity:1"
       d="m 29.538581,973.03706 c 3.96793,21.08852 11.64105,42.67944 24.48609,57.06084 18.17185,18.221 44.676889,20.2543 63.338059,14.0695 l -2.98281,-9.9622 c -52.099454,13.7378 -69.434949,-21.2473 -81.575149,-59.7165 -1.08873,-6.89528 -3.6291,-6.53237 -3.26619,-1.45164 z"
       id="path4206"
       inkscape:connector-curvature="0"
       sodipodi:nodetypes="cccccc" />
    <path
       style="fill:#000000;fill-opacity:1;fill-rule:evenodd;stroke:none;stroke-width:1px;stroke-linecap:butt;stroke-linejoin:miter;stroke-opacity:1"
       d="m 141.31477,998.76801 7.89992,-0.13251 c 2.07162,-27.32912 -7.08069,-39.8521 -29.63084,-53.0586 -16.41358,-9.61262 -67.519209,-13.99302 -90.518799,-26.17897 -4.35492,-2.54036 -5.16783,1.0129 2.08705,4.73806 35.27047,18.11029 59.591801,13.6765 85.955129,28.34504 20.46393,11.38612 26.48225,29.7175 24.20754,46.28698 z"
       id="path4208"
       inkscape:connector-curvature="0"
       sodipodi:nodetypes="ccscssc" />
    <path
       style="fill:#000000;fill-opacity:1;fill-rule:evenodd;stroke:none;stroke-width:1px;stroke-linecap:butt;stroke-linejoin:miter;stroke-opacity:1"
       d="m 141.17765,1002.4328 c -0.14091,11.4788 -15.50865,28.1931 -27.51899,32.1884 l 3.23511,9.7939 c 17.45974,-5.5789 32.97026,-24.3539 31.31629,-40.8936 z"
       id="path4212"
       inkscape:connector-curvature="0"
       sodipodi:nodetypes="ccccc" />
    <path
       style="fill:#000000;fill-opacity:1;fill-rule:evenodd;stroke:none;stroke-width:1px;stroke-linecap:butt;stroke-linejoin:miter;stroke-opacity:1"
       d="m 32.063197,957.56666 c 8.899967,42.70894 36.963002,87.89894 80.297403,72.76954 l -1.95168,-5.855 c -42.784817,8.2155 -62.618311,-30.70803 -75.836429,-68.02978 z"
       id="path4223"
       inkscape:connector-curvature="0"
       sodipodi:nodetypes="ccccc" />
    <path
       style="fill:#000000;fill-opacity:1;fill-rule:evenodd;stroke:none;stroke-width:1px;stroke-linecap:butt;stroke-linejoin:miter;stroke-opacity:1"
       d="m 61.617101,989.90867 -3.903346,2.23048 c 8.726761,16.73365 23.888875,28.72835 42.657995,27.32345 l -1.115245,-7.5279 c -17.374603,2.2254 -28.191209,-7.3188 -37.639404,-22.02603 z"
       id="path4225"
       inkscape:connector-curvature="0"
       sodipodi:nodetypes="ccccc" />
  </g>
</svg>
