<?xml version="1.0" encoding="UTF-8" standalone="no"?>
<!-- Created with Inkscape (http://www.inkscape.org/) -->

<svg
   xmlns:dc="http://purl.org/dc/elements/1.1/"
   xmlns:cc="http://creativecommons.org/ns#"
   xmlns:rdf="http://www.w3.org/1999/02/22-rdf-syntax-ns#"
   xmlns:svg="http://www.w3.org/2000/svg"
   xmlns="http://www.w3.org/2000/svg"
   xmlns:sodipodi="http://sodipodi.sourceforge.net/DTD/sodipodi-0.dtd"
   xmlns:inkscape="http://www.inkscape.org/namespaces/inkscape"
   width="150"
   height="150"
   id="svg2"
   version="1.1"
   inkscape:version="0.91pre2 r13516"
   viewBox="0 0 150 150"
   sodipodi:docname="zoom0.svg">
  <defs
     id="defs4" />
  <sodipodi:namedview
     id="base"
     pagecolor="#ffffff"
     bordercolor="#666666"
     borderopacity="1.0"
     inkscape:pageopacity="0.0"
     inkscape:pageshadow="2"
     inkscape:zoom="3.9842052"
     inkscape:cx="73.006745"
     inkscape:cy="73.549803"
     inkscape:document-units="px"
     inkscape:current-layer="layer1"
     showgrid="false"
     inkscape:window-width="1366"
     inkscape:window-height="705"
     inkscape:window-x="-8"
     inkscape:window-y="-8"
     inkscape:window-maximized="1" />
  <metadata
     id="metadata7">
    <rdf:RDF>
      <cc:Work
         rdf:about="">
        <dc:format>image/svg+xml</dc:format>
        <dc:type
           rdf:resource="http://purl.org/dc/dcmitype/StillImage" />
        <dc:title></dc:title>
      </cc:Work>
    </rdf:RDF>
  </metadata>
  <g
     inkscape:label="Layer 1"
     inkscape:groupmode="layer"
     id="layer1"
     transform="translate(0,-902.3622)">
    <g
       id="g4315"
       style="stroke:#000000;stroke-opacity:0.11560693"
       transform="matrix(0.99207566,-0.05061273,0.12564189,1.0015778,-123.92333,-1.1187144)" />
    <path
       style="fill:#000000;fill-opacity:1;stroke:none;stroke-width:2.66810632;stroke-miterlimit:4;stroke-dasharray:none;stroke-opacity:0.05202314"
       d="M 76.28125 8.9335938 A 68.747581 67.516579 0 0 0 28.728516 27.794922 L 36.515625 33.087891 A 60.597866 59.564991 0 0 1 79.451172 15.498047 A 60.597866 59.564991 0 0 1 138.39062 61.541016 L 143.01953 60.558594 A 68.747581 67.516579 0 0 0 76.28125 8.9335938 z M 138.07812 89.837891 A 60.597866 59.564991 0 0 1 79.451172 134.62891 A 60.597866 59.564991 0 0 1 28.066406 106.57227 L 16.357422 109.47266 A 68.747581 67.516579 0 0 0 76.28125 143.9668 A 68.747581 67.516579 0 0 0 143.39062 90.890625 L 138.07812 89.837891 z "
       transform="translate(0,902.3622)"
       id="ellipse4417" />
    <path
       style="fill:#000000;fill-opacity:1;fill-rule:evenodd;stroke:#000000;stroke-width:1px;stroke-linecap:butt;stroke-linejoin:miter;stroke-opacity:1"
       d="M 43.193359,933.87978 C 25.987582,944.6165 13.269026,959.09258 2.3769531,975.09072 14.801965,993.43404 28.679708,1008.8719 46.363281,1016.6981 l -0.396484,-18.62496 30.115234,-4.74024 0,-32.76172 -32.097656,-5.68945 z"
       id="path4437"
       inkscape:connector-curvature="0"
       sodipodi:nodetypes="cccccccc" />
    <path
       style="fill:#000000;fill-rule:evenodd;stroke:none;stroke-width:1px;stroke-linecap:butt;stroke-linejoin:miter;stroke-opacity:1;fill-opacity:1"
       d="m 131.56032,959.2407 -0.39626,11.09416 -35.267894,-6.6337 0,27.06991 35.662424,-6.17059 0,9.90625 12.68234,-17.03862 z"
       id="path4421" />
    <path
       style="fill:#ffffff;fill-opacity:1;stroke:none;stroke-width:2.9000001;stroke-miterlimit:4;stroke-dasharray:none;stroke-opacity:0.05202314"
       d="m 27.785554,956.46571 c 0,4.37764 0,8.75528 0,13.13292 -5.107827,0 -10.215654,0 -15.323481,0 0,3.77255 0,7.54511 0,11.31766 5.107827,0 10.215654,0 15.323481,0 0,4.79475 0,9.58951 0,14.38426 3.765901,0 7.531803,0 11.297704,0 0,-4.79475 0,-9.58951 0,-14.38426 4.480564,0 8.961127,0 13.441691,0 0,-3.77255 0,-7.54511 0,-11.31766 -4.480564,0 -8.961127,0 -13.441691,0 0,-4.37764 0,-8.75528 0,-13.13292 -3.765901,0 -7.531803,0 -11.297704,0 z"
       id="rect4426"
       inkscape:connector-curvature="0"
       sodipodi:nodetypes="ccccccccccccc" />
    <rect
       y="973.90198"
       x="103.42483"
       height="7.5290112"
       width="21.794506"
       id="rect4433"
       style="fill:#ffffff;fill-opacity:1;stroke:none;stroke-width:2.9000001;stroke-miterlimit:4;stroke-dasharray:none;stroke-opacity:0.05202314" />
    <path
       style="fill:#000000;fill-opacity:1;stroke:none;stroke-width:2.9000001;stroke-miterlimit:4;stroke-dasharray:none;stroke-opacity:0.05202314"
       d="M 81.572266 24.001953 A 51.453175 49.696236 0 0 0 47.787109 36.296875 L 53.904297 43.224609 A 42.166504 40.158577 0 0 1 85.337891 29.775391 A 42.166504 40.158577 0 0 1 125.30469 57.292969 L 129.25 55.101562 A 51.453175 49.696236 0 0 0 81.572266 24.001953 z M 120.68164 91.767578 A 42.166504 40.158577 0 0 1 85.337891 110.0918 A 42.166504 40.158577 0 0 1 63.275391 104.09961 L 51.75 114.15039 A 51.453175 49.696236 0 0 0 81.572266 123.39453 A 51.453175 49.696236 0 0 0 127.88867 95.248047 L 120.68164 91.767578 z "
       transform="translate(0,902.3622)"
       id="ellipse4453" />
  </g>
</svg>
